<?xml version="1.0" standalone="no"?><!DOCTYPE svg PUBLIC "-//W3C//DTD SVG 1.1//EN" "http://www.w3.org/Graphics/SVG/1.1/DTD/svg11.dtd"><svg t="1643704831122" class="icon" viewBox="0 0 1025 1024" version="1.1" xmlns="http://www.w3.org/2000/svg" p-id="7511" xmlns:xlink="http://www.w3.org/1999/xlink" width="128.125" height="128"><defs><style type="text/css"></style></defs><path d="M875.432137 148.567863C677.341654-49.522621 351.450858-49.522621 153.360374 148.567863s-198.090484 523.981279 0 722.071763 523.981279 198.090484 722.071763 0 198.090484-517.591264 0-722.071763z m-230.040561 587.881435L511.201248 602.25897l-134.190328 134.190328c-25.560062 25.560062-63.900156 25.560062-89.460218 0s-25.560062-63.900156 0-89.460218L421.74103 512.798752 287.550702 378.608424c-25.560062-25.560062-25.560062-63.900156 0-89.460218 25.560062-25.560062 63.900156-25.560062 89.460218 0L511.201248 423.338534l134.190328-134.190328c25.560062-25.560062 63.900156-25.560062 89.460218 0s25.560062 63.900156 0 89.460218L600.661466 512.798752l134.190328 134.190328c25.560062 25.560062 25.560062 63.900156 0 89.460218-25.560062 25.560062-63.900156 25.560062-89.460218 0z" p-id="7512"></path></svg>